<?xml version="1.0" standalone="no"?>
<!DOCTYPE svg PUBLIC "-//W3C//DTD SVG 20010904//EN"
 "http://www.w3.org/TR/2001/REC-SVG-20010904/DTD/svg10.dtd">
<svg version="1.0" xmlns="http://www.w3.org/2000/svg"
 width="1280.000000pt" height="708.000000pt" viewBox="0 0 1280.000000 708.000000"
 preserveAspectRatio="xMidYMid meet">
<metadata>
Created by potrace 1.15, written by Peter Selinger 2001-2017
</metadata>
<g transform="translate(0.000000,708.000000) scale(0.100000,-0.100000)"
fill="#000000" stroke="none">
<path d="M0 4785 l0 -2295 4190 0 4190 0 0 2295 0 2295 -4190 0 -4190 0 0
-2295z"/>
<path d="M8870 5431 c-20 -11 -46 -38 -60 -63 l-25 -43 -5 -1985 c-5 -1969 -5
-1985 15 -2029 36 -80 41 -81 412 -81 l323 0 29 57 c98 194 293 384 499 487
81 41 217 83 326 102 147 25 406 16 538 -19 301 -79 541 -276 674 -553 l45
-94 421 0 421 0 63 31 c88 43 186 135 221 207 l28 57 3 728 3 728 -35 104
c-45 134 -88 218 -199 390 -191 296 -1019 1641 -1061 1723 -76 150 -232 238
-466 262 -64 6 -479 10 -1119 10 -970 -1 -1018 -2 -1051 -19z m1991 -291 c171
-17 279 -58 309 -117 8 -15 62 -107 119 -203 281 -475 476 -823 537 -961 26
-58 39 -103 42 -146 4 -58 2 -64 -25 -92 -16 -16 -47 -34 -69 -40 -55 -15
-2238 -15 -2299 0 -52 13 -119 67 -144 118 -40 79 -43 122 -39 731 3 577 3
586 25 632 13 29 35 55 55 68 32 19 48 20 709 20 393 0 720 -4 780 -10z m1605
-3111 c49 -45 54 -72 54 -294 0 -236 -7 -266 -64 -290 -71 -30 -157 -13 -206
39 -24 26 -25 34 -28 173 -7 312 33 409 166 400 38 -3 59 -10 78 -28z"/>
<path d="M860 2141 c-146 -40 -275 -133 -324 -234 -92 -190 -30 -499 129 -646
36 -33 131 -91 149 -91 3 0 15 19 27 43 111 219 359 460 584 567 315 151 703
156 998 15 119 -57 197 -113 308 -224 115 -115 203 -240 260 -366 l34 -75
2683 0 2682 0 0 515 0 515 -3732 -1 c-3539 0 -3736 -1 -3798 -18z"/>
<path d="M1726 1695 c-173 -33 -331 -120 -458 -253 -449 -470 -234 -1236 395
-1412 97 -28 245 -36 344 -20 344 55 615 299 704 635 27 104 30 297 6 398 -77
314 -311 556 -619 638 -100 27 -270 33 -372 14z m362 -248 c323 -114 497 -468
388 -790 -88 -260 -319 -427 -591 -427 -108 0 -185 18 -280 65 -162 79 -290
237 -330 406 -19 84 -19 226 1 308 46 187 203 364 383 432 87 32 127 38 246
35 88 -2 125 -8 183 -29z"/>
<path d="M10380 1690 c-106 -23 -157 -41 -239 -86 -132 -73 -224 -159 -308
-287 -92 -140 -135 -288 -135 -462 0 -174 43 -323 133 -461 119 -181 273 -296
486 -361 77 -23 106 -26 228 -27 116 0 153 3 218 22 256 73 441 226 552 456
59 122 75 189 82 332 9 195 -32 348 -138 509 -188 288 -546 437 -879 365z
m372 -243 c95 -34 171 -82 239 -150 72 -72 120 -149 155 -252 23 -68 27 -97
27 -190 0 -93 -4 -122 -27 -190 -58 -171 -167 -296 -321 -370 -107 -51 -166
-65 -282 -65 -278 0 -517 181 -599 456 -25 81 -25 257 0 339 63 212 232 377
446 437 95 27 270 20 362 -15z"/>
</g>
</svg>
